<svg xmlns="http://www.w3.org/2000/svg" viewBox="0 0 32 32">
  <defs>
    <linearGradient id="g" x1="0" y1="0" x2="32" y2="32" gradientUnits="userSpaceOnUse">
      <stop offset="0" stop-color="#6366f1"/>
      <stop offset="1" stop-color="#a855f7"/>
    </linearGradient>
  </defs>
  <rect width="32" height="32" rx="7" fill="url(#g)"/>
  <g transform="translate(4 4) scale(1)" fill="#ffffff">
    <path d="M21.6 18.2 13 11.75v-.91c1.65-.49 2.8-2.17 2.43-4.05-.26-1.31-1.3-2.4-2.61-2.7C10.54 3.57 8.5 5.3 8.5 7.5h2c0-.83.67-1.5 1.5-1.5s1.5.67 1.5 1.5c0 .84-.69 1.52-1.53 1.5-.54-.01-.97.45-.97.99v1.76L2.4 18.2c-.77.58-.36 1.8.6 1.8h18c.96 0 1.37-1.22.6-1.8M6 18l6-4.5 6 4.5z"/>
  </g>
</svg>
